<?xml version="1.0" standalone="no"?>
<!DOCTYPE svg PUBLIC "-//W3C//DTD SVG 20010904//EN"
 "http://www.w3.org/TR/2001/REC-SVG-20010904/DTD/svg10.dtd">
<svg version="1.0" xmlns="http://www.w3.org/2000/svg"
 width="144.000000pt" height="144.000000pt" viewBox="0 0 144.000000 144.000000"
 preserveAspectRatio="xMidYMid meet">
<metadata>
Created by potrace 1.14, written by Peter Selinger 2001-2017
</metadata>
<g transform="translate(0.000000,144.000000) scale(0.100000,-0.100000)"
fill="#000000" stroke="none">
<path d="M695 1399 c-46 -6 -95 -27 -185 -80 -19 -12 -101 -59 -182 -106 -230
-132 -229 -130 -232 -458 -1 -132 2 -264 6 -293 10 -60 44 -120 85 -150 32
-22 233 -142 239 -142 2 0 32 -17 66 -38 35 -21 89 -51 121 -67 95 -46 168
-34 312 52 17 10 99 58 182 107 240 138 236 130 236 486 0 179 -4 279 -12 308
-19 67 -78 116 -272 227 -284 163 -288 165 -364 154z"/>
</g>
</svg>
